<?xml version="1.0" encoding="utf-8" ?>
<svg baseProfile="full" height="100%" version="1.1" viewBox="0,0,550,160" width="100%" xmlns="http://www.w3.org/2000/svg" xmlns:ev="http://www.w3.org/2001/xml-events" xmlns:xlink="http://www.w3.org/1999/xlink"><defs /><rect fill="white" height="160" width="550" x="0" y="0" /><path d="M0,0 M247.6378173828125,60.0 L247.68087768554688,60.26509094238281 L247.7225799560547,60.83953857421875 L247.72601318359375,61.769195556640625 L247.65701293945312,63.00461196899414 L247.52098083496094,64.4757080078125 L247.33570861816406,66.10749053955078 L247.1457977294922,67.83531188964844 L246.9860382080078,69.58479309082031 L246.88206481933594,71.26115417480469 L246.84130859375,72.75856018066406 L246.8546142578125,73.98249816894531 L246.89651489257812,74.88320922851562 L246.9479217529297,75.4651107788086 L246.9922332763672,75.7790298461914 L247.02276611328125,75.90956115722656 L247.03805541992188,75.94059753417969 M250.3355712890625,68.84932708740234 L250.36447143554688,68.8824234008789 L250.43768310546875,69.05583953857422 L250.5586395263672,69.46842193603516 L250.6982879638672,70.17597961425781 L250.8095245361328,71.1539077758789 L250.85186767578125,72.33692169189453 L250.8243865966797,73.63540649414062 L250.759033203125,74.94991302490234 L250.70697021484375,76.17867279052734 L250.69512939453125,77.21607208251953 L250.72604370117188,77.9899673461914 L250.7847900390625,78.47212982177734 L250.8402099609375,78.65440368652344 L250.8867950439453,78.52171325683594 L250.94419860839844,78.04527282714844 L251.03237915039062,77.20637512207031 L251.19198608398438,76.05474090576172 L251.44943237304688,74.69278717041016 L251.81076049804688,73.24736022949219 L252.29685974121094,71.82843017578125 L252.94088745117188,70.51043701171875 L253.74952697753906,69.343994140625 L254.73526000976562,68.38008117675781 L255.87393188476562,67.65851593017578 L257.10528564453125,67.22071838378906 L258.3678283691406,67.08895874023438 L259.5995788574219,67.26859283447266 L260.6999206542969,67.73507690429688 L261.5919189453125,68.43611907958984 L262.2005615234375,69.29814147949219 L262.4593505859375,70.2451400756836 L262.3456726074219,71.1983413696289 L261.865234375,72.08715057373047 L261.04046630859375,72.8375244140625 L259.9560546875,73.39144134521484 L258.72674560546875,73.71648406982422 L257.4873352050781,73.81351470947266 L256.3653869628906,73.7165756225586 L255.4453582763672,73.47956848144531 L254.80825805664062,73.1264419555664 L254.49424743652344,72.68854522705078 L254.5008544921875,72.19738006591797 L254.67828369140625,71.77598571777344 L254.87879943847656,71.49800872802734 M266.2391662597656,67.68852996826172 L266.25018310546875,67.87268829345703 L266.28948974609375,68.30067443847656 L266.3525390625,69.01283264160156 L266.42022705078125,69.95862579345703 L266.4451599121094,71.03938293457031 L266.40167236328125,72.12866973876953 L266.29864501953125,73.10687255859375 L266.18194580078125,73.89604949951172 L266.09716796875,74.43511199951172 L266.0697937011719,74.67829895019531 L266.0794982910156,74.59446716308594 L266.1103210449219,74.1586685180664 L266.1549377441406,73.38253021240234 L266.2330322265625,72.35479736328125 L266.3873291015625,71.2022933959961 L266.6621398925781,70.04613494873047 L267.0991516113281,68.96976470947266 L267.7408447265625,68.01412963867188 L268.6072998046875,67.20052337646484 L269.6923522949219,66.55807495117188 L270.9599609375,66.11924743652344 L272.356201171875,65.89995574951172 L273.81866455078125,65.8799057006836 L275.3118896484375,66.04460906982422 L276.76312255859375,66.35420227050781 L278.09136962890625,66.75453186035156 L279.08013916015625,67.11616516113281 L279.6556091308594,67.36187744140625 M285.5596923828125,68.49835968017578 L285.52520751953125,68.32946014404297 L285.41156005859375,68.051025390625 L285.15423583984375,67.71222686767578 L284.7034912109375,67.42024230957031 L284.0362548828125,67.24442291259766 L283.1727294921875,67.25492858886719 L282.1805725097656,67.49674987792969 L281.14434814453125,67.99226379394531 L280.1490783691406,68.74079132080078 L279.2809143066406,69.70299530029297 L278.60211181640625,70.78943634033203 L278.17388916015625,71.89305114746094 L278.0387878417969,72.9005355834961 L278.2159423828125,73.70877075195312 L278.7070617675781,74.23705291748047 L279.4928894042969,74.42073059082031 L280.520751953125,74.21446228027344 L281.7168273925781,73.62039184570312 L282.9740295410156,72.6951675415039 L284.1793212890625,71.54676055908203 L285.2283630371094,70.33349609375 L286.0425109863281,69.22697448730469 L286.58782958984375,68.35353088378906 L286.8814697265625,67.77196502685547 L286.9774475097656,67.48461151123047 L286.94525146484375,67.471435546875 L286.85296630859375,67.74495697021484 L286.739013671875,68.33487701416016 L286.62890625,69.21671295166016 L286.5625305175781,70.29120635986328 L286.58770751953125,71.4159927368164 L286.7562255859375,72.45429229736328 L287.08563232421875,73.31248474121094 L287.53094482421875,73.95572662353516 L287.93719482421875,74.35796356201172 L288.2088623046875,74.5518569946289 M294.1300048828125,60.013427734375 L294.16241455078125,60.22605514526367 L294.221435546875,60.71943664550781 L294.2933044433594,61.54857635498047 L294.3483581542969,62.67814636230469 L294.373046875,64.03634643554688 L294.3580017089844,65.542724609375 L294.3121337890625,67.11416625976562 L294.26544189453125,68.66973876953125 L294.2348327636719,70.11570739746094 L294.2259521484375,71.36908721923828 L294.25048828125,72.38587951660156 L294.2943115234375,73.10875701904297 L294.33807373046875,73.50057983398438 L294.37274169921875,73.56501007080078 L294.39044189453125,73.44007110595703 L294.3915710449219,73.26742553710938 M290.8892517089844,67.6080551147461 L291.00640869140625,67.62654113769531 L291.3643493652344,67.65959930419922 L292.0692443847656,67.69410705566406 L293.1536865234375,67.70413970947266 L294.5570068359375,67.66243743896484 L296.1551513671875,67.55609130859375 L297.81011962890625,67.38639831542969 L299.4256286621094,67.17278289794922 L300.8973693847656,66.94564056396484 L302.15301513671875,66.73451232910156 L303.04010009765625,66.57992553710938 L303.53167724609375,66.49349975585938 M304.1477355957031,67.08015441894531 L304.0686340332031,67.33431243896484 L303.93853759765625,67.86046600341797 L303.76116943359375,68.67378997802734 L303.5516052246094,69.67549896240234 L303.3246154785156,70.74586486816406 L303.10565185546875,71.74470520019531 L302.91455078125,72.5526123046875 L302.7889404296875,73.11766052246094 L302.73126220703125,73.43147277832031 L302.7176208496094,73.49195861816406 L302.75,73.2999496459961 L302.83648681640625,72.82884979248047 L303.0016174316406,72.06610107421875 L303.30047607421875,71.0894775390625 L303.76318359375,70.01414489746094 L304.406005859375,68.94638061523438 L305.2544860839844,67.96965789794922 L306.3236389160156,67.13382720947266 L307.60150146484375,66.46953582763672 L309.0486755371094,66.01876831054688 L310.583251953125,65.79576873779297 L312.1082458496094,65.77587890625 L313.5444641113281,65.91627502441406 L314.84283447265625,66.1907958984375 L315.9550476074219,66.57875061035156 L316.85107421875,67.0706787109375 L317.50677490234375,67.6412353515625 L317.8991394042969,68.2403335571289 L318.03179931640625,68.81352233886719 L317.93670654296875,69.33856201171875 L317.65728759765625,69.81514739990234 L317.25439453125,70.26327514648438 L316.79498291015625,70.70208740234375 L316.33062744140625,71.1345443725586 L315.9187927246094,71.56185150146484 L315.604736328125,71.99169921875 L315.43707275390625,72.42991638183594 L315.46337890625,72.87596130371094 L315.73248291015625,73.30458068847656 L316.2703857421875,73.6532211303711 L317.0899658203125,73.85231018066406 L318.154296875,73.83634948730469 L319.4037780761719,73.5663833618164 L320.74774169921875,73.04878234863281 L322.0672607421875,72.31207275390625 L323.2266845703125,71.40266418457031 L324.10986328125,70.39240264892578 L324.6178283691406,69.36102294921875 L324.7081298828125,68.3852767944336 L324.39776611328125,67.53768920898438 L323.7438659667969,66.8674545288086 L322.83563232421875,66.42269897460938 L321.7662048339844,66.23905944824219 L320.6084899902344,66.32642364501953 L319.4527587890625,66.67766571044922 L318.4163818359375,67.22981262207031 L317.60980224609375,67.88346862792969 L317.112060546875,68.44381713867188 L316.8922119140625,68.80303192138672 M327.5506591796875,67.69821166992188 L327.5450134277344,67.97795104980469 L327.5315246582031,68.56877136230469 L327.48956298828125,69.5213623046875 L327.3895568847656,70.79837799072266 L327.1943359375,72.35100555419922 L326.8889465332031,74.09797668457031 L326.49169921875,75.91899108886719 L326.0632629394531,77.65232849121094 L325.6787109375,79.13047790527344 L325.39959716796875,80.23853302001953 L325.25018310546875,80.91849517822266 L325.20306396484375,81.15785217285156 L325.21502685546875,80.96021270751953 L325.2572326660156,80.32103729248047 L325.3366394042969,79.26177978515625 L325.4945983886719,77.86579132080078 L325.78546142578125,76.24918365478516 L326.2451171875,74.52479553222656 L326.9049072265625,72.80664825439453 L327.77227783203125,71.17684936523438 L328.84442138671875,69.70860290527344 L330.1064758300781,68.48583221435547 L331.5080261230469,67.59199523925781 L332.975830078125,67.07640075683594 L334.42254638671875,66.96391296386719 L335.7441711425781,67.2232437133789 L336.8455505371094,67.7832260131836 L337.65447998046875,68.55221557617188 L338.1102294921875,69.4444580078125 L338.173583984375,70.37023162841797 L337.82879638671875,71.24996948242188 L337.07159423828125,72.00169372558594 L335.9291687011719,72.56425476074219 L334.492431640625,72.90341186523438 L332.89373779296875,73.03018188476562 L331.262451171875,72.98006439208984 L329.7464599609375,72.81982421875 L328.46112060546875,72.62142944335938 L327.4941711425781,72.44662475585938 L326.9304504394531,72.32400512695312 L326.80877685546875,72.25428009033203 L326.9403991699219,72.21956634521484 L327.14892578125,72.2032241821289 " fill="none" stroke="black" stroke-linecap="round" stroke-width="2" /></svg>