<?xml version="1.0" encoding="utf-8" ?>
<svg baseProfile="full" height="100%" version="1.1" viewBox="0,0,300,60" width="100%" xmlns="http://www.w3.org/2000/svg" xmlns:ev="http://www.w3.org/2001/xml-events" xmlns:xlink="http://www.w3.org/1999/xlink"><defs /><rect fill="white" height="60" width="300" x="0" y="0" /><path d="M0,0 M87.26995086669922,27.59677505493164 L86.96994018554688,27.393749237060547 L86.42716979980469,27.132545471191406 L85.64356994628906,26.925756454467773 L84.69721221923828,26.913299560546875 L83.63349151611328,27.133041381835938 L82.55264282226562,27.571510314941406 L81.57508087158203,28.169689178466797 L80.85466003417969,28.885520935058594 L80.5101318359375,29.67498207092285 L80.60493469238281,30.491979598999023 L81.14170837402344,31.298799514770508 L82.07113647460938,32.066246032714844 L83.30294799804688,32.7855224609375 L84.72842407226562,33.472999572753906 L86.2157974243164,34.15058135986328 L87.631103515625,34.8293571472168 L88.85107421875,35.50318908691406 L89.78750610351562,36.152339935302734 L90.38715362548828,36.75273132324219 L90.63113403320312,37.28044128417969 L90.51496124267578,37.713050842285156 L90.04170227050781,38.021427154541016 L89.2286605834961,38.17334747314453 L88.130615234375,38.146339416503906 L86.82466125488281,37.931514739990234 L85.40805053710938,37.539390563964844 L83.98313903808594,37.00059509277344 L82.64007568359375,36.349979400634766 L81.45760345458984,35.61863708496094 L80.50762939453125,34.834163665771484 L79.84119415283203,34.01617431640625 L79.490234375,33.18032455444336 L79.47659301757812,32.345611572265625 L79.80564880371094,31.53335189819336 L80.46749877929688,30.767507553100586 L81.43718719482422,30.075408935546875 L82.65950775146484,29.480247497558594 L84.06063842773438,29.002403259277344 L85.55146789550781,28.65091896057129 L87.07730102539062,28.42918586730957 L88.56373596191406,28.324691772460938 L89.94017028808594,28.308637619018555 L90.97999572753906,28.333633422851562 L91.59980773925781,28.364910125732422 M120.94486999511719,26.818864822387695 L120.8109359741211,26.532752990722656 L120.53759765625,26.096389770507812 L120.08175659179688,25.5994815826416 L119.41443634033203,25.190420150756836 L118.49437713623047,24.935348510742188 L117.30046844482422,24.876888275146484 L115.85431671142578,25.0321102142334 L114.22663879394531,25.422290802001953 L112.51277160644531,26.055315017700195 L110.80872344970703,26.914962768554688 L109.20791625976562,27.976255416870117 L107.78591918945312,29.186981201171875 L106.6131820678711,30.482545852661133 L105.7513198852539,31.791473388671875 L105.24774169921875,33.04899978637695 L105.1226577758789,34.195350646972656 L105.37461853027344,35.18882369995117 L105.98127746582031,35.99403381347656 L106.90583801269531,36.58670425415039 L108.10711669921875,36.950626373291016 L109.53535461425781,37.07879638671875 L111.12557983398438,36.97187423706055 L112.80440521240234,36.65078353881836 L114.491455078125,36.14821243286133 L116.1015853881836,35.509403228759766 L117.56732177734375,34.78385543823242 L118.83545684814453,34.01853561401367 L119.8627700805664,33.26189041137695 L120.6229248046875,32.56608200073242 L121.11055755615234,31.96977424621582 L121.34632110595703,31.492263793945312 L121.37686157226562,31.133533477783203 L121.25191497802734,30.881372451782227 L120.99693298339844,30.73689079284668 L120.61116027832031,30.71898651123047 L120.08711242675781,30.847042083740234 L119.43518829345703,31.122650146484375 L118.68849182128906,31.522478103637695 L117.8973617553711,31.9989070892334 L117.11198425292969,32.50017547607422 L116.37298583984375,32.98094177246094 L115.71427917480469,33.41056442260742 L115.16294860839844,33.77421951293945 L114.739990234375,34.06526184082031 L114.4525375366211,34.280460357666016 L114.28540802001953,34.42208480834961 L114.21763610839844,34.49587631225586 L114.21953582763672,34.51005935668945 L114.25926208496094,34.4844970703125 L114.31502532958984,34.43776321411133 L114.371337890625,34.38506317138672 L114.40953063964844,34.340145111083984 L114.43304443359375,34.310386657714844 L114.4441146850586,34.28989791870117 L114.44367980957031,34.276893615722656 L114.433349609375,34.267822265625 L114.41769409179688,34.26036834716797 L114.39676666259766,34.25564193725586 L114.38084411621094,34.253631591796875 L114.37239837646484,34.249900817871094 L114.36891174316406,34.24407196044922 L114.36598205566406,34.234981536865234 L114.36268615722656,34.22392654418945 L114.35716247558594,34.21253204345703 L114.35263061523438,34.20193099975586 L114.34919738769531,34.19235610961914 L114.34695434570312,34.184600830078125 L114.34300231933594,34.176353454589844 L114.33818054199219,34.16781234741211 L114.33029174804688,34.15920639038086 L114.32106018066406,34.15121078491211 L114.31245422363281,34.14507293701172 L114.30643463134766,34.14087677001953 L114.30127716064453,34.13691711425781 L114.298095703125,34.13247299194336 L114.29304504394531,34.12726593017578 L114.28593444824219,34.121673583984375 L114.27751159667969,34.1182975769043 L114.2673568725586,34.116432189941406 L114.25553894042969,34.11573791503906 L114.24272155761719,34.11415100097656 L114.22865295410156,34.111263275146484 L114.21588897705078,34.107872009277344 L114.20584106445312,34.10590362548828 L114.1976318359375,34.104740142822266 L114.19161987304688,34.10587692260742 L114.18690490722656,34.109031677246094 L114.18338012695312,34.11416244506836 L114.18150329589844,34.12057876586914 L114.17911529541016,34.12662124633789 L114.17597198486328,34.131248474121094 L114.17352294921875,34.13558578491211 L114.17239379882812,34.140350341796875 L114.17344665527344,34.14622116088867 L114.17326354980469,34.14990234375 L114.16889953613281,34.15015411376953 L114.16120910644531,34.146934509277344 L114.15191650390625,34.142147064208984 L114.14408111572266,34.137752532958984 L114.140869140625,34.13730239868164 L114.13850402832031,34.13755798339844 L114.1376953125,34.14023971557617 L114.13832092285156,34.14424514770508 L114.13819885253906,34.149017333984375 L114.13548278808594,34.15325164794922 L114.12887573242188,34.15765380859375 L114.11758422851562,34.16058349609375 L114.10624694824219,34.164634704589844 L114.09871673583984,34.16956329345703 L114.09770202636719,34.175819396972656 L114.10148620605469,34.182857513427734 L114.10700988769531,34.190093994140625 L114.11129760742188,34.19635772705078 L114.11271667480469,34.20173263549805 L114.11058044433594,34.2059326171875 L114.10813903808594,34.20957565307617 L114.10562896728516,34.21387481689453 L114.10604095458984,34.220680236816406 L114.1043930053711,34.22708511352539 L114.09811401367188,34.23179244995117 L114.08683013916016,34.23462677001953 L114.07379913330078,34.236114501953125 L114.06422424316406,34.23994064331055 L114.0646743774414,34.2477912902832 L114.06668090820312,34.25250244140625 L114.06773376464844,34.251285552978516 L114.06625366210938,34.24399185180664 L114.06250762939453,34.23339080810547 L114.06216430664062,34.226844787597656 L114.068603515625,34.22696304321289 L114.0765609741211,34.23051071166992 L114.08430480957031,34.235050201416016 L114.090087890625,34.23780059814453 L114.0933837890625,34.23757553100586 L114.09642028808594,34.23571014404297 L114.10060119628906,34.233463287353516 L114.10547637939453,34.23207092285156 L114.10893249511719,34.231597900390625 L114.11231231689453,34.233482360839844 L114.1143798828125,34.2356071472168 L114.11212158203125,34.23417663574219 L114.10414123535156,34.227272033691406 L114.09197998046875,34.21617126464844 L114.07864379882812,34.20344161987305 L114.07135009765625,34.19541549682617 L114.07035064697266,34.19210433959961 L114.07313537597656,34.19080352783203 L114.07612609863281,34.18852233886719 L114.0787353515625,34.185001373291016 L114.08049011230469,34.1804084777832 L114.08308410644531,34.17681121826172 L114.08586883544922,34.17449188232422 L114.08998107910156,34.17322540283203 L114.09519958496094,34.172508239746094 L114.10065460205078,34.17243194580078 L114.10450744628906,34.172603607177734 M123.0703353881836,29.481178283691406 L123.08564758300781,29.43913459777832 L123.11021423339844,29.416847229003906 L123.12210083007812,29.49185562133789 L123.08479309082031,29.765609741210938 L122.9608154296875,30.311771392822266 L122.73906707763672,31.135526657104492 L122.43133544921875,32.177188873291016 L122.08576965332031,33.337440490722656 L121.75582885742188,34.48896789550781 L121.48788452148438,35.507144927978516 L121.30386352539062,36.30211639404297 L121.20542907714844,36.83726501464844 L121.16705322265625,37.11396408081055 L121.16670989990234,37.144508361816406 L121.1947021484375,36.91743087768555 L121.25739288330078,36.395137786865234 L121.37593078613281,35.56562805175781 L121.57635498046875,34.496036529541016 L121.8712387084961,33.292537689208984 L122.27047729492188,32.065162658691406 L122.77922058105469,30.898679733276367 L123.3995590209961,29.839597702026367 L124.13505554199219,28.92420196533203 L124.9784927368164,28.19771957397461 L125.90937042236328,27.6956729888916 L126.90372467041016,27.43047332763672 L127.92379760742188,27.3848819732666 L128.9557342529297,27.535743713378906 L129.96697998046875,27.83496856689453 L130.9150390625,28.22166633605957 L131.63992309570312,28.567766189575195 L132.07737731933594,28.798681259155273 M137.96681213378906,29.585315704345703 L137.81874084472656,29.432443618774414 L137.5166015625,29.223892211914062 L137.0159454345703,29.043926239013672 L136.30575561523438,29.02266502380371 L135.38055419921875,29.238943099975586 L134.2945556640625,29.74080467224121 L133.15200805664062,30.51868438720703 L132.096923828125,31.5209903717041 L131.2589874267578,32.646854400634766 L130.72760009765625,33.77235412597656 L130.54147338867188,34.77920150756836 L130.69888305664062,35.57227325439453 L131.17227172851562,36.08211135864258 L131.92031860351562,36.262474060058594 L132.88604736328125,36.08533477783203 L134.00088500976562,35.55134582519531 L135.1800994873047,34.70210266113281 L136.3348388671875,33.62139129638672 L137.3839111328125,32.426239013671875 L138.25729370117188,31.258623123168945 L138.90969848632812,30.253902435302734 L139.3371124267578,29.488399505615234 L139.56512451171875,28.995885848999023 L139.63327026367188,28.785329818725586 L139.58291625976562,28.865684509277344 L139.43594360351562,29.276626586914062 L139.21038818359375,30.044910430908203 L138.95498657226562,31.1026611328125 L138.7376708984375,32.319766998291016 L138.6273956298828,33.53664779663086 L138.67686462402344,34.61317825317383 L138.93972778320312,35.43994903564453 L139.41189575195312,35.96311569213867 L140.0559844970703,36.167755126953125 L140.65951538085938,36.16151428222656 L141.07948303222656,36.070411682128906 M144.50473022460938,29.670223236083984 L144.5244903564453,29.842988967895508 L144.5838623046875,30.2258243560791 L144.69686889648438,30.843610763549805 L144.87176513671875,31.63382911682129 L145.11004638671875,32.5020637512207 L145.41441345214844,33.34506607055664 L145.79953002929688,34.07906723022461 L146.29554748535156,34.6430778503418 L146.92518615722656,34.98471450805664 L147.70440673828125,35.05857467651367 L148.62106323242188,34.83995819091797 L149.63670349121094,34.33802032470703 L150.69390869140625,33.609161376953125 L151.72723388671875,32.748390197753906 L152.65643310546875,31.871503829956055 L153.41140747070312,31.09194564819336 L153.95138549804688,30.483673095703125 L154.26156616210938,30.08447265625 L154.355224609375,29.920618057250977 L154.2589874267578,30.01879119873047 L153.97372436523438,30.418914794921875 L153.4944305419922,31.163217544555664 L152.83978271484375,32.244937896728516 L152.03619384765625,33.61570739746094 L151.1320037841797,35.20500946044922 L150.18832397460938,36.9283561706543 L149.25439453125,38.700721740722656 L148.37277221679688,40.44335174560547 L147.5885009765625,42.063079833984375 L146.93643188476562,43.46711349487305 L146.43426513671875,44.60084533691406 L146.11468505859375,45.383453369140625 L145.99136352539062,45.76728057861328 L146.05117797851562,45.76106262207031 L146.1945037841797,45.54939270019531 L146.33474731445312,45.30577850341797 M159.58099365234375,22.5 L159.5850372314453,22.674530029296875 L159.55543518066406,23.1141357421875 L159.45706176757812,23.895944595336914 L159.26141357421875,25.003501892089844 L158.96896362304688,26.361146926879883 L158.5930633544922,27.87149429321289 L158.16424560546875,29.44034194946289 L157.72381591796875,30.98012924194336 L157.3201141357422,32.396419525146484 L156.99478149414062,33.58916473388672 L156.77352905273438,34.49193572998047 L156.6526336669922,35.07773208618164 L156.62002563476562,35.34699630737305 L156.67294311523438,35.30731201171875 L156.83761596679688,34.955909729003906 L157.15814208984375,34.29486846923828 L157.67462158203125,33.3785400390625 L158.39541625976562,32.311832427978516 L159.29885864257812,31.223440170288086 L160.33250427246094,30.235197067260742 L161.43069458007812,29.438796997070312 L162.52606201171875,28.892181396484375 L163.55433654785156,28.63665771484375 L164.45997619628906,28.6950626373291 L165.20242309570312,29.068117141723633 L165.75210571289062,29.730894088745117 L166.09521484375,30.632110595703125 L166.2405242919922,31.693950653076172 L166.22515869140625,32.820194244384766 L166.1116485595703,33.91273498535156 L165.96829223632812,34.890968322753906 L165.89202880859375,35.673892974853516 L165.95169067382812,36.206966400146484 L166.17791748046875,36.47201156616211 L166.4578399658203,36.539695739746094 L166.68951416015625,36.50662612915039 M174.86529541015625,30.933927536010742 L174.8085479736328,30.725048065185547 L174.6503143310547,30.443817138671875 L174.3299560546875,30.19339370727539 L173.8018798828125,30.127920150756836 L173.04884338378906,30.319477081298828 L172.11297607421875,30.803373336791992 L171.0933380126953,31.553674697875977 L170.1290283203125,32.50770950317383 L169.35638427734375,33.558250427246094 L168.8712615966797,34.58403778076172 L168.71389770507812,35.47478485107422 L168.87802124023438,36.14590835571289 L169.3345947265625,36.536930084228516 L170.04574584960938,36.60982894897461 L170.95518493652344,36.35214614868164 L171.9896697998047,35.78501510620117 L173.05935668945312,34.966129302978516 L174.070556640625,33.98472213745117 L174.94595336914062,32.96033477783203 L175.6282958984375,32.02323532104492 L176.09523010253906,31.267253875732422 L176.35975646972656,30.748600006103516 L176.45535278320312,30.492019653320312 L176.42037963867188,30.50457000732422 L176.28549194335938,30.81206703186035 L176.06991577148438,31.4384708404541 L175.81494140625,32.336299896240234 L175.58477783203125,33.40174102783203 L175.45770263671875,34.4987907409668 L175.5020294189453,35.49427032470703 L175.7513427734375,36.30064392089844 L176.23916625976562,36.84012222290039 L176.94573974609375,37.06632995605469 L177.80743408203125,36.983909606933594 L178.5729217529297,36.7545051574707 L179.0866241455078,36.52873229980469 M182.51641845703125,30.765798568725586 L182.4981689453125,30.84432601928711 L182.453857421875,31.09869384765625 L182.36611938476562,31.611774444580078 L182.225830078125,32.3955078125 L182.0391845703125,33.3746223449707 L181.85214233398438,34.433231353759766 L181.72967529296875,35.446712493896484 L181.72525024414062,36.31210708618164 L181.86410522460938,36.96071243286133 L182.14376831054688,37.336116790771484 L182.55044555664062,37.395179748535156 L183.0887451171875,37.11564254760742 L183.75299072265625,36.513431549072266 L184.4981689453125,35.66531753540039 L185.25604248046875,34.706363677978516 L185.9400634765625,33.7835807800293 L186.47802734375,33.020172119140625 L186.84518432617188,32.47261428833008 L187.05462646484375,32.156776428222656 L187.13845825195312,32.08183288574219 L187.144287109375,32.270179748535156 L187.10592651367188,32.73927688598633 L187.04922485351562,33.478477478027344 L187.01202392578125,34.398033142089844 L187.04470825195312,35.37482452392578 L187.198486328125,36.28287124633789 L187.51498413085938,37.02474594116211 L188.00949096679688,37.539833068847656 L188.67105102539062,37.79420471191406 L189.47201538085938,37.754024505615234 L190.36581420898438,37.40868377685547 L191.28302001953125,36.77718734741211 L192.13876342773438,35.91374588012695 L192.85470581054688,34.901123046875 L193.37759399414062,33.83706283569336 L193.68417358398438,32.79664993286133 L193.79379272460938,31.850696563720703 L193.76226806640625,31.062068939208984 L193.653564453125,30.475841522216797 L193.54391479492188,30.13338851928711 L193.49093627929688,30.040983200073242 L193.509033203125,30.138362884521484 L193.56417846679688,30.303905487060547 L193.62155151367188,30.444183349609375 M199.903564453125,23.653034210205078 L199.89794921875,23.780838012695312 L199.873046875,24.124164581298828 L199.80520629882812,24.76450538635254 L199.66378784179688,25.714296340942383 L199.42828369140625,26.93575096130371 L199.0931396484375,28.371320724487305 L198.67886352539062,29.953426361083984 L198.2271728515625,31.606977462768555 L197.7860107421875,33.242218017578125 L197.39996337890625,34.75395965576172 L197.09152221679688,36.05238342285156 L196.88980102539062,37.04192352294922 L196.81161499023438,37.66367721557617 L196.8590087890625,37.91425704956055 L196.96542358398438,37.9194221496582 L197.07232666015625,37.823692321777344 M203.15740966796875,31.67266845703125 L203.1251220703125,31.5468807220459 L202.99212646484375,31.401926040649414 L202.67892456054688,31.31641960144043 L202.12521362304688,31.392789840698242 L201.33236694335938,31.66071128845215 L200.37188720703125,32.11076736450195 L199.38272094726562,32.69240188598633 L198.52337646484375,33.35378646850586 L197.93026733398438,34.03522491455078 L197.69381713867188,34.69579315185547 L197.85476684570312,35.30677795410156 L198.40945434570312,35.84774398803711 L199.326171875,36.2984504699707 L200.53302001953125,36.64863586425781 L201.92172241210938,36.898311614990234 L203.38998413085938,37.053653717041016 L204.81027221679688,37.123924255371094 L206.0751953125,37.12075424194336 L206.99432373046875,37.08057403564453 L207.5174560546875,37.03566360473633 M223.10324096679688,24.270362854003906 L223.130615234375,24.283645629882812 L223.17465209960938,24.410415649414062 L223.2144775390625,24.747669219970703 L223.21014404296875,25.37262725830078 L223.12600708007812,26.294170379638672 L222.94769287109375,27.48499870300293 L222.6849365234375,28.891199111938477 L222.36758422851562,30.446388244628906 L222.03524780273438,32.075897216796875 L221.72378540039062,33.69744110107422 L221.4632568359375,35.22442626953125 L221.28372192382812,36.56133270263672 L221.20199584960938,37.61758041381836 L221.21817016601562,38.33789825439453 L221.28378295898438,38.72884750366211 L221.3516845703125,38.874183654785156 M228.82443237304688,24.738487243652344 L228.84393310546875,24.92305564880371 L228.84637451171875,25.361408233642578 L228.80047607421875,26.12335205078125 L228.676025390625,27.191036224365234 L228.474609375,28.506498336791992 L228.20895385742188,29.983417510986328 L227.91018676757812,31.531044006347656 L227.61563110351562,33.06083679199219 L227.36129760742188,34.489051818847656 L227.16851806640625,35.72715759277344 L227.04489135742188,36.72707748413086 L226.9669189453125,37.425174713134766 L226.90255737304688,37.790130615234375 L226.82394409179688,37.83259963989258 L226.74591064453125,37.6989860534668 L226.6844482421875,37.52573013305664 M222.0198974609375,32.629764556884766 L222.18466186523438,32.610321044921875 L222.61669921875,32.57560348510742 L223.4027099609375,32.52676010131836 L224.53033447265625,32.45952606201172 L225.91262817382812,32.366817474365234 L227.42764282226562,32.24832534790039 L228.95758056640625,32.10983657836914 L230.42379760742188,31.962610244750977 L231.77093505859375,31.824098587036133 L232.958251953125,31.703433990478516 L233.96337890625,31.621448516845703 L234.77392578125,31.60970115661621 L235.37893676757812,31.71800422668457 L235.77896118164062,31.9937744140625 L235.97784423828125,32.47673034667969 L235.99078369140625,33.17416000366211 L235.85348510742188,34.056007385253906 L235.6217041015625,35.05339050292969 L235.35958862304688,36.081260681152344 L235.13607788085938,37.0153923034668 L234.99685668945312,37.74403762817383 L234.95443725585938,38.19523620605469 L234.97259521484375,38.395023345947266 L235.00958251953125,38.430389404296875 M236.92471313476562,26.838272094726562 L236.97161865234375,26.833572387695312 L237.08749389648438,26.871780395507812 L237.2274169921875,26.93521499633789 L237.34649658203125,27.00619888305664 M243.20086669921875,26.255537033081055 L243.16427612304688,26.4899845123291 L243.0660400390625,26.976436614990234 L242.87783813476562,27.74711036682129 L242.58755493164062,28.759864807128906 L242.2052001953125,29.977760314941406 L241.76177978515625,31.35430145263672 L241.30487060546875,32.83539581298828 L240.89447021484375,34.34625244140625 L240.58914184570312,35.79059982299805 L240.4337158203125,37.071495056152344 L240.45004272460938,38.118751525878906 L240.67501831054688,38.84323501586914 L241.10482788085938,39.1917839050293 L241.70156860351562,39.160457611083984 L242.26589965820312,38.930320739746094 L242.6617431640625,38.67835235595703 M247.85079956054688,26.647743225097656 L247.85015869140625,26.80144500732422 L247.81878662109375,27.178672790527344 L247.72763061523438,27.847429275512695 L247.55096435546875,28.803916931152344 L247.28887939453125,30.004613876342773 L246.96060180664062,31.38359832763672 L246.60861206054688,32.86600112915039 L246.28860473632812,34.36846923828125 L246.05810546875,35.80066680908203 L245.96075439453125,37.074058532714844 L246.0174560546875,38.12609100341797 L246.261962890625,38.90557098388672 L246.69418334960938,39.39398193359375 L247.282470703125,39.60493087768555 L247.835693359375,39.63213348388672 L248.22406005859375,39.57929611206055 " fill="none" stroke="black" stroke-linecap="round" stroke-width="2" /></svg>