<?xml version="1.0" encoding="utf-8" ?>
<svg baseProfile="full" height="100%" version="1.1" viewBox="0,0,450,120" width="100%" xmlns="http://www.w3.org/2000/svg" xmlns:ev="http://www.w3.org/2001/xml-events" xmlns:xlink="http://www.w3.org/1999/xlink"><defs /><rect fill="white" height="120" width="450" x="0" y="0" /><path d="M0,0 M75.0042724609375,46.944427490234375 L75.01840209960938,46.96435546875 L75.0555419921875,47.126625061035156 L75.11936950683594,47.5416259765625 L75.19515991210938,48.2827262878418 L75.25335693359375,49.328269958496094 L75.26710510253906,50.611473083496094 L75.2155990600586,52.0391960144043 L75.10224151611328,53.510074615478516 L74.95750427246094,54.9207763671875 L74.81790924072266,56.16953659057617 L74.71463012695312,57.18357849121094 L74.66134643554688,57.87358856201172 L74.65174865722656,58.193939208984375 L74.66922760009766,58.14887619018555 L74.69409942626953,57.9174690246582 L74.71340942382812,57.66750717163086 M72.80502319335938,46.89357376098633 L73.0255126953125,46.5898323059082 L73.53854370117188,46.142337799072266 L74.41213989257812,45.65281677246094 L75.61970520019531,45.278690338134766 L77.08256530761719,45.067317962646484 L78.67805480957031,45.04069519042969 L80.264892578125,45.18598556518555 L81.70176696777344,45.493927001953125 L82.85385131835938,45.93464279174805 L83.60694885253906,46.46595001220703 L83.8775634765625,47.05302429199219 L83.6209716796875,47.67145919799805 L82.85421752929688,48.30547332763672 L81.66860961914062,48.933982849121094 L80.25627136230469,49.52223587036133 L78.85863494873047,50.02982711791992 L77.695556640625,50.42953109741211 L76.91511535644531,50.71368408203125 L76.58068084716797,50.89884948730469 L76.68424987792969,51.01775360107422 L77.21942138671875,51.10684585571289 L78.16973876953125,51.20569610595703 L79.47614288330078,51.35853958129883 L81.03622436523438,51.6065559387207 L82.70227813720703,51.97866439819336 L84.30831146240234,52.4849967956543 L85.71862030029297,53.11002731323242 L86.84135437011719,53.81644058227539 L87.62364196777344,54.55895233154297 L88.05003356933594,55.295654296875 L88.11620330810547,55.990760803222656 L87.81954956054688,56.61909866333008 L87.15814208984375,57.163055419921875 L86.13780212402344,57.598899841308594 L84.78926086425781,57.90574645996094 L83.17484283447266,58.072017669677734 L81.37838745117188,58.096885681152344 L79.5016098022461,57.998779296875 L77.654052734375,57.814414978027344 L75.94171142578125,57.570743560791016 L74.48262023925781,57.30410385131836 L73.36898803710938,57.049049377441406 L72.67132568359375,56.8552131652832 L72.341064453125,56.7416877746582 M90.01505279541016,51.773475646972656 L89.99807739257812,51.90825271606445 L89.9616928100586,52.23176574707031 L89.90164947509766,52.79623031616211 L89.8264389038086,53.587493896484375 L89.760009765625,54.54948043823242 L89.7384033203125,55.59690856933594 L89.80842590332031,56.63131332397461 L90.01750183105469,57.55336380004883 L90.39915466308594,58.274478912353516 L90.97026062011719,58.719886779785156 L91.73381042480469,58.84260940551758 L92.66619110107422,58.61592483520508 L93.72750854492188,58.04798889160156 L94.85855102539062,57.182918548583984 L95.98294067382812,56.10395431518555 L97.02578735351562,54.924583435058594 L97.92207336425781,53.7844352722168 L98.61915588378906,52.80940628051758 L99.09930419921875,52.08097839355469 L99.37313842773438,51.634639739990234 L99.47452545166016,51.480552673339844 L99.45771789550781,51.621360778808594 L99.36445617675781,52.07746124267578 L99.21855926513672,52.852272033691406 L99.05237579345703,53.876068115234375 L98.90526580810547,55.027565002441406 L98.82237243652344,56.170413970947266 L98.87977600097656,57.17768096923828 L99.11004638671875,57.96743392944336 L99.49947357177734,58.51021194458008 L99.896728515625,58.810997009277344 L100.18815612792969,58.929656982421875 M109.38021850585938,52.04578399658203 L109.18473052978516,51.86267852783203 L108.79225158691406,51.64133071899414 L108.16867065429688,51.48421096801758 L107.351806640625,51.5146484375 L106.39864349365234,51.74624252319336 L105.43356323242188,52.15015411376953 L104.60639190673828,52.66783905029297 L104.06843566894531,53.25606918334961 L103.92231750488281,53.875946044921875 L104.21636962890625,54.49821472167969 L104.93324279785156,55.09917068481445 L106.00119018554688,55.66653060913086 L107.29597473144531,56.201324462890625 L108.66666412353516,56.716129302978516 L109.94813537597656,57.21626663208008 L111.00347900390625,57.69498062133789 L111.73834228515625,58.13795471191406 L112.1023941040039,58.529869079589844 L112.08059692382812,58.8619384765625 L111.68846893310547,59.13789367675781 L110.95074462890625,59.3563346862793 L109.91796112060547,59.51021194458008 L108.67967987060547,59.60051727294922 L107.34561157226562,59.62626647949219 L106.03462219238281,59.590553283691406 L104.85421752929688,59.50419998168945 L103.86936950683594,59.38310241699219 L103.14979553222656,59.22726058959961 L102.74353790283203,59.04874038696289 L102.6545181274414,58.85053634643555 L102.75370788574219,58.679473876953125 L102.90670776367188,58.56369400024414 M115.6722640991211,52.93512725830078 L115.68894958496094,53.15422821044922 L115.71000671386719,53.623809814453125 L115.7130126953125,54.39014434814453 L115.6682357788086,55.43192672729492 L115.54639434814453,56.720428466796875 L115.33157348632812,58.20123291015625 L115.0322265625,59.80320739746094 L114.67755889892578,61.43159484863281 L114.31300354003906,62.96369171142578 L113.9925765991211,64.27938079833984 L113.74786376953125,65.29202270507812 L113.58772277832031,65.94352722167969 L113.49999237060547,66.20571899414062 L113.45787048339844,66.07706451416016 L113.45101165771484,65.55730438232422 L113.48768615722656,64.6680908203125 L113.58539581298828,63.47871398925781 L113.76718139648438,62.07535934448242 L114.05451965332031,60.54914093017578 L114.46444702148438,58.98665237426758 L115.0216293334961,57.454742431640625 L115.74612426757812,56.01318359375 L116.64851379394531,54.72895812988281 L117.7244644165039,53.6624641418457 L118.94646453857422,52.863250732421875 L120.26678466796875,52.367958068847656 L121.62374877929688,52.19483184814453 L122.93534851074219,52.33756637573242 L124.11146545410156,52.7631721496582 L125.0669937133789,53.414466857910156 L125.7292709350586,54.21845626831055 L126.04893493652344,55.097015380859375 L126.00581359863281,55.97359085083008 L125.6043472290039,56.77817916870117 L124.87519836425781,57.44912338256836 L123.87483215332031,57.94011306762695 L122.68330383300781,58.22772216796875 L121.39806365966797,58.315895080566406 L120.1201171875,58.234676361083984 L118.95497131347656,58.01384353637695 L117.99911499023438,57.69820785522461 L117.3141098022461,57.336143493652344 L116.917236328125,57.02894973754883 L116.75106811523438,56.8313102722168 M129.1478271484375,52.23399353027344 L129.17474365234375,52.442291259765625 L129.2060546875,52.86068344116211 L129.21743774414062,53.50300979614258 L129.17767333984375,54.312217712402344 L129.07986450195312,55.23727035522461 L128.934326171875,56.204490661621094 L128.77651977539062,57.145668029785156 L128.65478515625,57.95332717895508 L128.59890747070312,58.526023864746094 L128.6131591796875,58.80409622192383 L128.66259765625,58.86000061035156 L128.70974731445312,58.80172348022461 M130.17764282226562,46.869529724121094 L130.18939208984375,46.820438385009766 L130.218994140625,46.770042419433594 L130.25482177734375,46.7335319519043 L130.28521728515625,46.72611999511719 M133.813720703125,52.44084930419922 L133.764892578125,52.768741607666016 L133.68655395507812,53.37356948852539 L133.57559204101562,54.22671127319336 L133.43435668945312,55.19821548461914 L133.261474609375,56.18896484375 L133.07730102539062,57.094947814941406 L132.90863037109375,57.84017562866211 L132.79177856445312,58.38141632080078 L132.73538208007812,58.6951904296875 L132.72787475585938,58.77192306518555 L132.76419067382812,58.59676742553711 L132.85162353515625,58.14267349243164 L133.0104217529297,57.407344818115234 L133.26992797851562,56.460365295410156 L133.64849853515625,55.40118408203125 L134.15509033203125,54.333763122558594 L134.79702758789062,53.34077453613281 L135.57833862304688,52.47285079956055 L136.4940948486328,51.76790237426758 L137.52293395996094,51.268577575683594 L138.6305694580078,50.9959831237793 L139.77713012695312,50.94295883178711 L140.9185791015625,51.07002639770508 L142.04473876953125,51.335914611816406 L143.12411499023438,51.68500900268555 L144.11605834960938,52.06429672241211 L144.86505126953125,52.375762939453125 L145.31121826171875,52.572452545166016 M149.34803771972656,52.64747619628906 L149.17376708984375,52.520599365234375 L148.81629943847656,52.391605377197266 L148.236572265625,52.364356994628906 L147.44940185546875,52.56144714355469 L146.49267578125,53.021793365478516 L145.46255493164062,53.73583984375 L144.4905548095703,54.642826080322266 L143.7315673828125,55.66576385498047 L143.30950927734375,56.711036682128906 L143.28863525390625,57.677608489990234 L143.68174743652344,58.473331451416016 L144.45361328125,59.02231979370117 L145.53614807128906,59.26881408691406 L146.84188842773438,59.182220458984375 L148.25997924804688,58.762752532958984 L149.65411376953125,58.04183578491211 L150.88400268554688,57.091529846191406 L151.82772827148438,56.0147705078125 L152.40780639648438,54.9262809753418 L152.607421875,53.927642822265625 L152.45875549316406,53.0937614440918 L152.0320281982422,52.47193908691406 L151.41099548339844,52.08845520019531 L150.70022583007812,51.9780158996582 L150.01487731933594,52.13477325439453 L149.45877075195312,52.508644104003906 L149.102294921875,52.91291809082031 L148.93756103515625,53.21243667602539 M156.54501342773438,52.35300064086914 L156.51678466796875,52.501243591308594 L156.45089721679688,52.85361099243164 L156.33306884765625,53.4610595703125 L156.15768432617188,54.30061721801758 L155.93917846679688,55.3024787902832 L155.703857421875,56.35441207885742 L155.49169921875,57.33283996582031 L155.3358917236328,58.134193420410156 L155.25204467773438,58.67906951904297 L155.23675537109375,58.91875457763672 L155.29293823242188,58.83468246459961 L155.43746948242188,58.41736602783203 L155.70407104492188,57.69109344482422 L156.12026977539062,56.73479080200195 L156.70071411132812,55.65605545043945 L157.4375762939453,54.57429504394531 L158.306396484375,53.59666442871094 L159.27178955078125,52.79869079589844 L160.29171752929688,52.238704681396484 L161.31666564941406,51.96377944946289 L162.29385375976562,51.9964485168457 L163.1720733642578,52.33614730834961 L163.9040985107422,52.96052551269531 L164.45086669921875,53.823753356933594 L164.79681396484375,54.856685638427734 L164.958740234375,55.96852111816406 L164.98318481445312,57.0568962097168 L164.9567413330078,58.01459884643555 L164.95956420898438,58.756553649902344 L165.04238891601562,59.24065399169922 L165.16464233398438,59.48733901977539 L165.27479553222656,59.56894302368164 M168.16488647460938,57.41141128540039 L168.4190673828125,57.317195892333984 L168.91812133789062,57.1084098815918 L169.66531372070312,56.758445739746094 L170.57260131835938,56.273643493652344 L171.5532989501953,55.67536163330078 L172.50428771972656,54.99789810180664 L173.3369903564453,54.289207458496094 L173.97547912597656,53.5985107421875 L174.3601531982422,52.97317886352539 L174.45152282714844,52.459144592285156 L174.22576904296875,52.1070442199707 L173.67236328125,51.970787048339844 L172.81809997558594,52.10533905029297 L171.74070739746094,52.53986358642578 L170.57119750976562,53.258426666259766 L169.4827423095703,54.20167541503906 L168.64822387695312,55.278289794921875 L168.20330810546875,56.39007568359375 L168.2358856201172,57.446632385253906 L168.7817840576172,58.36680603027344 L169.8244171142578,59.080135345458984 L171.29920959472656,59.54078674316406 L173.08172607421875,59.74101257324219 L175.04139709472656,59.690956115722656 L176.99850463867188,59.43950271606445 L178.78550720214844,59.05228805541992 L180.10324096679688,58.68241882324219 L180.86166381835938,58.42436218261719 M194.66343688964844,45.1711540222168 L194.7097625732422,45.31504440307617 L194.78421020507812,45.666404724121094 L194.86163330078125,46.29380798339844 L194.897216796875,47.20585250854492 L194.86297607421875,48.37849426269531 L194.75584411621094,49.768150329589844 L194.59413146972656,51.317291259765625 L194.4110565185547,52.953712463378906 L194.23843383789062,54.58656311035156 L194.10655212402344,56.113555908203125 L194.0302734375,57.44578170776367 L194.0232391357422,58.480125427246094 L194.08135986328125,59.145416259765625 L194.19139099121094,59.4266471862793 L194.3030548095703,59.445228576660156 L194.38682556152344,59.35005187988281 M200.6318817138672,45.68472671508789 L200.66543579101562,45.890647888183594 L200.7054901123047,46.34233474731445 L200.73191833496094,47.08930587768555 L200.7141876220703,48.10529327392578 L200.64878845214844,49.349891662597656 L200.53302001953125,50.755943298339844 L200.38525390625,52.24945831298828 L200.2327880859375,53.74131393432617 L200.10874938964844,55.13663101196289 L200.0186309814453,56.34633255004883 L199.96437072753906,57.32274627685547 L199.91001892089844,58.01747131347656 L199.82254028320312,58.413753509521484 L199.68458557128906,58.52442932128906 L199.54518127441406,58.46564483642578 L199.43682861328125,58.351356506347656 M193.84579467773438,53.54444885253906 L194.00088500976562,53.47663879394531 L194.38926696777344,53.36442565917969 L195.0740203857422,53.219581604003906 L196.04209899902344,53.066429138183594 L197.22821044921875,52.91267013549805 L198.54347229003906,52.762203216552734 L199.901611328125,52.620872497558594 L201.25836181640625,52.49734115600586 L202.54727172851562,52.39813995361328 L203.708984375,52.32349395751953 L204.56845092773438,52.275760650634766 L205.0696563720703,52.25037384033203 M212.5890350341797,49.7822265625 L212.43028259277344,49.7435417175293 L212.09361267089844,49.7509765625 L211.53305053710938,49.87748718261719 L210.75372314453125,50.196781158447266 L209.7791290283203,50.7291374206543 L208.6829376220703,51.47148132324219 L207.572509765625,52.390506744384766 L206.57424926757812,53.439659118652344 L205.80279541015625,54.55474090576172 L205.3391876220703,55.66535186767578 L205.22702026367188,56.699554443359375 L205.4756622314453,57.59318923950195 L206.073486328125,58.28707504272461 L206.98329162597656,58.73409652709961 L208.15277099609375,58.904685974121094 L209.50453186035156,58.79743194580078 L210.94602966308594,58.4373779296875 L212.3789520263672,57.86930847167969 L213.72276306152344,57.143218994140625 L214.9144744873047,56.30705261230469 L215.916015625,55.40153503417969 L216.70936584472656,54.46715545654297 L217.29351806640625,53.544429779052734 L217.68304443359375,52.68326950073242 L217.91073608398438,51.933773040771484 L218.02029418945312,51.33666229248047 L218.05516052246094,50.91033935546875 L218.04733276367188,50.65924072265625 L218.01133728027344,50.581016540527344 L217.94522094726562,50.692691802978516 L217.83929443359375,51.01879119873047 L217.6907501220703,51.57477569580078 L217.5067138671875,52.34537124633789 L217.30152893066406,53.28337478637695 L217.10678100585938,54.3206787109375 L216.95321655273438,55.38446807861328 L216.8688507080078,56.404640197753906 L216.8788604736328,57.32112503051758 L216.98770141601562,58.087162017822266 L217.1831512451172,58.67035675048828 L217.45204162597656,59.06071090698242 L217.75193786621094,59.27389144897461 L218.0372314453125,59.34153747558594 L218.27435302734375,59.31385803222656 L218.43484497070312,59.248695373535156 L218.524169921875,59.18883514404297 L218.56625366210938,59.15280532836914 L218.5796661376953,59.14268493652344 M234.70143127441406,51.151451110839844 L234.72230529785156,51.17326354980469 L234.7548828125,51.3072395324707 L234.78176879882812,51.63834762573242 L234.7689208984375,52.22629165649414 L234.68492126464844,53.066017150878906 L234.50955200195312,54.119911193847656 L234.2513427734375,55.32823944091797 L233.94467163085938,56.61696243286133 L233.6446533203125,57.90629196166992 L233.39962768554688,59.10597610473633 L233.23606872558594,60.141353607177734 L233.16085815429688,60.910892486572266 L233.1609649658203,61.34588623046875 L233.21267700195312,61.426673889160156 L233.27830505371094,61.299072265625 L233.3304901123047,61.11476516723633 M228.76504516601562,48.98902130126953 L228.86782836914062,48.94514846801758 L229.19737243652344,48.88705825805664 L229.86782836914062,48.82618713378906 L230.92462158203125,48.774864196777344 L232.32276916503906,48.72296142578125 L233.9689483642578,48.66990280151367 L235.7460479736328,48.618064880371094 L237.58697509765625,48.592369079589844 L239.4004364013672,48.613155364990234 L241.0914306640625,48.6869010925293 L242.3743133544922,48.77663803100586 L243.138916015625,48.85063171386719 M246.710205078125,56.080631256103516 L246.5500030517578,55.91777420043945 L246.22430419921875,55.6844367980957 L245.68190002441406,55.45304489135742 L244.90611267089844,55.3411865234375 L243.8886260986328,55.41232681274414 L242.68687438964844,55.70548629760742 L241.41964721679688,56.216949462890625 L240.2511444091797,56.91989517211914 L239.3248291015625,57.74854278564453 L238.7342071533203,58.617164611816406 L238.52101135253906,59.431968688964844 L238.6848602294922,60.10418701171875 L239.20375061035156,60.55510711669922 L240.03726196289062,60.728271484375 L241.12022399902344,60.58795928955078 L242.36212158203125,60.13703155517578 L243.65975952148438,59.41984939575195 L244.9075927734375,58.51811599731445 L246.01934814453125,57.534950256347656 L246.9274444580078,56.591888427734375 L247.59307861328125,55.79055404663086 L248.01666259765625,55.193397521972656 L248.23019409179688,54.832977294921875 L248.2780303955078,54.72462463378906 L248.2109832763672,54.87788391113281 L248.05767822265625,55.31679916381836 L247.8419189453125,56.03104782104492 L247.60797119140625,56.949012756347656 L247.40713500976562,57.96388626098633 L247.29327392578125,58.95979309082031 L247.3102264404297,59.8436393737793 L247.49887084960938,60.52830505371094 L247.8605194091797,60.95328903198242 L248.3689422607422,61.09025573730469 L248.8501434326172,61.04021072387695 L249.18788146972656,60.92308807373047 M254.33909606933594,49.22713851928711 L254.3599090576172,49.380088806152344 L254.3783721923828,49.74647521972656 L254.36776733398438,50.38008117675781 L254.29193115234375,51.261138916015625 L254.13502502441406,52.330665588378906 L253.8963623046875,53.513431549072266 L253.61273193359375,54.734901428222656 L253.3351593017578,55.912174224853516 L253.1117706298828,56.95922088623047 L252.96466064453125,57.79415512084961 L252.88673400878906,58.381980895996094 L252.85528564453125,58.712127685546875 L252.87789916992188,58.794700622558594 L252.98165893554688,58.62667465209961 L253.21995544433594,58.209774017333984 L253.64065551757812,57.56531524658203 L254.2602081298828,56.78388214111328 L255.0770721435547,55.96558380126953 L256.07305908203125,55.21426773071289 L257.2061767578125,54.607200622558594 L258.426025390625,54.2005729675293 L259.6645202636719,54.02847671508789 L260.8367919921875,54.122222900390625 L261.86846923828125,54.474971771240234 L262.69207763671875,55.055179595947266 L263.25848388671875,55.806907653808594 L263.5376281738281,56.66061782836914 L263.5110778808594,57.539119720458984 L263.16815185546875,58.368927001953125 L262.50970458984375,59.078269958496094 L261.555908203125,59.61309814453125 L260.36285400390625,59.94469451904297 L259.01116943359375,60.06298828125 L257.609619140625,59.98462677001953 L256.26702880859375,59.749908447265625 L255.0863037109375,59.38670349121094 L254.15310668945312,58.94260787963867 L253.5187530517578,58.47775650024414 L253.17129516601562,58.1009407043457 L253.039794921875,57.86724090576172 M275.23419189453125,59.752593994140625 L275.50390625,59.432254791259766 L276.04638671875,58.81391525268555 L276.87493896484375,57.89970397949219 L277.91168212890625,56.78977966308594 L279.084228515625,55.561710357666016 L280.3189392089844,54.3020133972168 L281.5539855957031,53.08211898803711 L282.74359130859375,51.96879959106445 L283.82757568359375,51.034542083740234 L284.74066162109375,50.31480407714844 L285.4361572265625,49.821372985839844 L285.8917236328125,49.558658599853516 L286.106201171875,49.545684814453125 L286.10772705078125,49.823787689208984 L285.9083557128906,50.45784378051758 L285.51361083984375,51.46209716796875 L284.9542236328125,52.79407501220703 L284.285400390625,54.3586540222168 L283.58538818359375,56.025146484375 L282.9461669921875,57.67766189575195 L282.4365234375,59.201438903808594 L282.09088134765625,60.49440002441406 L281.90533447265625,61.39679718017578 L281.83642578125,61.88926696777344 M290.988037109375,55.40018081665039 L291.0917663574219,55.09485626220703 L291.2520446777344,54.588531494140625 L291.4234619140625,53.946285247802734 L291.53631591796875,53.300621032714844 L291.5459899902344,52.70944595336914 L291.4239501953125,52.20893096923828 L291.16778564453125,51.820648193359375 L290.7825927734375,51.58629608154297 L290.27276611328125,51.55238342285156 L289.6548767089844,51.75244903564453 L288.95068359375,52.20946502685547 L288.2025146484375,52.92034912109375 L287.4722900390625,53.85671615600586 L286.83135986328125,54.966304779052734 L286.3519287109375,56.172786712646484 L286.0960388183594,57.38107681274414 L286.1121520996094,58.500579833984375 L286.42095947265625,59.444923400878906 L287.0137939453125,60.142330169677734 L287.85321044921875,60.547359466552734 L288.88525390625,60.64094924926758 L290.0419921875,60.42946243286133 L291.2548828125,59.9475212097168 L292.442626953125,59.23942565917969 L293.51739501953125,58.35421371459961 L294.3954772949219,57.344181060791016 L295.0150146484375,56.266014099121094 L295.33514404296875,55.17228317260742 L295.3531188964844,54.11627960205078 L295.092041015625,53.14527893066406 L294.60003662109375,52.28954315185547 L293.933837890625,51.57579040527344 L293.18365478515625,51.031734466552734 L292.44091796875,50.66532897949219 L291.8679504394531,50.465396881103516 L291.52862548828125,50.38991165161133 M298.2421875,52.948883056640625 L298.2432861328125,53.156494140625 L298.23114013671875,53.5831184387207 L298.186279296875,54.25495529174805 L298.08837890625,55.129024505615234 L297.93182373046875,56.16220474243164 L297.7198181152344,57.294979095458984 L297.48052978515625,58.45330047607422 L297.2533874511719,59.53557586669922 L297.07568359375,60.44044876098633 L296.9643249511719,61.10222244262695 L296.92095947265625,61.487709045410156 L296.93304443359375,61.59014892578125 L297.00579833984375,61.403690338134766 L297.16253662109375,60.91287612915039 L297.4451904296875,60.13181686401367 L297.87115478515625,59.132564544677734 L298.444091796875,58.01032257080078 L299.14581298828125,56.8702278137207 L299.9505615234375,55.807151794433594 L300.82769775390625,54.895477294921875 L301.74932861328125,54.202327728271484 L302.6624755859375,53.78367614746094 L303.518310546875,53.67313766479492 L304.2672119140625,53.88064956665039 L304.86920166015625,54.39427185058594 L305.29327392578125,55.176212310791016 L305.52606201171875,56.16164016723633 L305.57098388671875,57.25928497314453 L305.46380615234375,58.35676193237305 L305.265625,59.34092712402344 L305.0435791015625,60.12632369995117 L304.8563232421875,60.65393829345703 L304.7471923828125,60.88892364501953 L304.748779296875,60.817596435546875 L304.899658203125,60.43169403076172 L305.23492431640625,59.75204849243164 L305.7694091796875,58.85475540161133 L306.49346923828125,57.84242630004883 L307.37030029296875,56.82575988769531 L308.346435546875,55.9033317565918 L309.36944580078125,55.14690017700195 L310.38299560546875,54.60923767089844 L311.33892822265625,54.33570098876953 L312.1932373046875,54.35071563720703 L312.909423828125,54.6586799621582 L313.45928955078125,55.23930740356445 L313.82415771484375,56.0494384765625 L314.0010986328125,57.01968002319336 L314.0172119140625,58.06103515625 L313.925537109375,59.076412200927734 L313.78765869140625,59.98388671875 L313.6934814453125,60.70000076293945 L313.7083740234375,61.17393493652344 L313.8646240234375,61.394264221191406 L314.07421875,61.43596649169922 L314.25482177734375,61.392478942871094 M321.88165283203125,56.93350601196289 L321.86663818359375,56.67145538330078 L321.78118896484375,56.29106140136719 L321.56280517578125,55.88721466064453 L321.156982421875,55.613643646240234 L320.54486083984375,55.53467559814453 L319.75714111328125,55.692596435546875 L318.87359619140625,56.08390426635742 L318.01397705078125,56.682411193847656 L317.3001708984375,57.41940689086914 L316.83270263671875,58.20365524291992 L316.67095947265625,58.94195556640625 L316.83544921875,59.5528678894043 L317.317138671875,59.969173431396484 L318.087646484375,60.142601013183594 L319.083251953125,60.05158233642578 L320.21282958984375,59.70624923706055 L321.36248779296875,59.1505241394043 L322.42242431640625,58.45055389404297 L323.30291748046875,57.69648742675781 L323.95343017578125,56.982086181640625 L324.36920166015625,56.38770294189453 L324.57598876953125,55.96889114379883 L324.61578369140625,55.76377868652344 L324.542724609375,55.79264450073242 L324.39501953125,56.088775634765625 L324.2022705078125,56.66876220703125 L324.00146484375,57.52054214477539 L323.8162841796875,58.59666061401367 L323.66326904296875,59.83582305908203 L323.5477294921875,61.17399597167969 L323.44769287109375,62.56485366821289 L323.32147216796875,63.95829772949219 L323.123779296875,65.30309295654297 L322.804931640625,66.54287719726562 L322.32818603515625,67.6288833618164 L321.6737060546875,68.5222396850586 L320.8394775390625,69.1978530883789 L319.84027099609375,69.64247131347656 L318.7198486328125,69.86369323730469 L317.527587890625,69.87239837646484 L316.322021484375,69.68721771240234 L315.16107177734375,69.33460998535156 L314.09942626953125,68.85177612304688 L313.20025634765625,68.26252746582031 L312.53155517578125,67.62095642089844 L312.12017822265625,66.97738647460938 L311.931396484375,66.46658325195312 L311.88653564453125,66.15222930908203 M345.0760498046875,59.81447982788086 L345.13409423828125,59.749202728271484 L345.2132568359375,59.673118591308594 L345.29937744140625,59.60405731201172 L345.37750244140625,59.54294204711914 L345.47174072265625,59.428897857666016 L345.6016845703125,59.199256896972656 L345.797119140625,58.8028450012207 L346.083251953125,58.22471618652344 L346.483154296875,57.483577728271484 L347.01416015625,56.616912841796875 L347.68701171875,55.67160415649414 L348.48919677734375,54.69476318359375 L349.40142822265625,53.72386932373047 L350.3968505859375,52.7906494140625 L351.44781494140625,51.91960525512695 L352.52984619140625,51.12636947631836 L353.6263427734375,50.42313766479492 L354.71807861328125,49.816566467285156 L355.7911376953125,49.308067321777344 L356.8341064453125,48.90360641479492 L357.84716796875,48.60721969604492 L358.83770751953125,48.418190002441406 L359.816162109375,48.325439453125 L360.7860107421875,48.31852340698242 L361.73968505859375,48.37614059448242 L362.660888671875,48.48054504394531 L363.52532958984375,48.61251449584961 L364.30413818359375,48.753204345703125 L364.97027587890625,48.875457763671875 L365.5086669921875,48.9711799621582 L365.9111328125,49.02307891845703 L366.186767578125,49.03134536743164 L366.34033203125,48.992366790771484 L366.392578125,48.928768157958984 L366.362548828125,48.85539627075195 L366.27301025390625,48.78835678100586 L366.14288330078125,48.714027404785156 L365.98724365234375,48.63484573364258 L365.80364990234375,48.522674560546875 L365.6087646484375,48.39223861694336 L365.4071044921875,48.24717712402344 L365.20501708984375,48.09688949584961 L365.00885009765625,47.93440246582031 L364.8243408203125,47.76591873168945 L364.6597900390625,47.56460189819336 L364.52777099609375,47.334224700927734 L364.42108154296875,47.07147979736328 L364.3192138671875,46.78832244873047 L364.191162109375,46.49643325805664 L364.0140380859375,46.2147331237793 L363.7882080078125,45.945823669433594 L363.52880859375,45.69877624511719 L363.24981689453125,45.47779846191406 L362.95513916015625,45.289039611816406 L362.63421630859375,45.13995361328125 L362.2774658203125,45.041229248046875 L361.88531494140625,45.0 L361.4755859375,45.01679992675781 L361.068115234375,45.089134216308594 L360.6737060546875,45.208187103271484 L360.287353515625,45.368072509765625 L359.89752197265625,45.563568115234375 L359.495849609375,45.79163360595703 L359.07025146484375,46.054386138916016 L358.6048583984375,46.36650466918945 L358.06982421875,46.7538948059082 L357.426025390625,47.25217056274414 L356.63995361328125,47.894065856933594 L355.7017822265625,48.7030029296875 L354.607421875,49.694007873535156 L353.37237548828125,50.8651237487793 L352.0186767578125,52.19883728027344 L350.574462890625,53.657894134521484 L349.07696533203125,55.187660217285156 L347.58074951171875,56.7191276550293 L346.11614990234375,58.213844299316406 L344.7423095703125,59.61027145385742 L343.52545166015625,60.850643157958984 L342.63714599609375,61.76083755493164 L342.1270751953125,62.288047790527344 M386.45953369140625,49.11911392211914 M385.84228515625,48.46895980834961 L385.76141357421875,48.456722259521484 L385.57745361328125,48.548587799072266 L385.2418212890625,48.84413146972656 L384.70867919921875,49.411739349365234 L383.9334716796875,50.228939056396484 L382.90045166015625,51.23781967163086 L381.591552734375,52.392269134521484 L380.0950927734375,53.615196228027344 L378.55950927734375,54.82542419433594 L377.3309326171875,55.78004837036133 L376.580810546875,56.363487243652344 M397.76153564453125,53.38006591796875 L398.40411376953125,53.261688232421875 L399.54705810546875,53.098453521728516 L401.09674072265625,52.943206787109375 L402.7681884765625,52.875457763671875 L404.3607177734375,52.92707824707031 L405.7176513671875,53.09587097167969 L406.76483154296875,53.346343994140625 L407.45416259765625,53.63214111328125 L407.77227783203125,53.91730880737305 L407.7252197265625,54.19709777832031 L407.3125,54.50418472290039 L406.522216796875,54.884647369384766 L405.34185791015625,55.38597106933594 L403.77996826171875,56.0301399230957 L401.87451171875,56.817684173583984 L399.6654052734375,57.75861358642578 L397.313232421875,58.80189514160156 L395.02752685546875,59.85240173339844 L393.2646484375,60.68607711791992 L392.218994140625,61.19264221191406 M391.3660888671875,63.048580169677734 " fill="none" stroke="black" stroke-linecap="round" stroke-width="2" /></svg>