<?xml version="1.0" encoding="utf-8" ?>
<svg baseProfile="full" height="100%" version="1.1" viewBox="0,0,450,120" width="100%" xmlns="http://www.w3.org/2000/svg" xmlns:ev="http://www.w3.org/2001/xml-events" xmlns:xlink="http://www.w3.org/1999/xlink"><defs /><rect fill="white" height="120" width="450" x="0" y="0" /><path d="M0,0 M133.14671325683594,59.48310089111328 L132.9348907470703,59.150367736816406 L132.5619659423828,58.74753952026367 L132.02670288085938,58.4672737121582 L131.35482788085938,58.572242736816406 L130.53005981445312,59.154239654541016 L129.5577392578125,60.23149108886719 L128.4686279296875,61.73834228515625 L127.38479614257812,63.60663986206055 L126.45913696289062,65.71002960205078 L125.81383514404297,67.9162826538086 L125.51676940917969,70.0771484375 L125.56724548339844,72.0347900390625 L125.92648315429688,73.65977478027344 L126.55563354492188,74.87411499023438 L127.42060089111328,75.62872314453125 L128.49557495117188,75.90889739990234 L129.72674560546875,75.72101593017578 L131.0105743408203,75.0500717163086 L132.2541046142578,73.9256591796875 L133.34405517578125,72.38655853271484 L134.16799926757812,70.5118637084961 L134.68496704101562,68.42172241210938 L134.87832641601562,66.26818084716797 L134.71188354492188,64.16921997070312 L134.234619140625,62.27278137207031 L133.50601196289062,60.6671028137207 L132.63040161132812,59.41474151611328 L131.71597290039062,58.58921432495117 L130.861328125,58.20468521118164 L130.0940399169922,58.19072723388672 L129.5326690673828,58.36907196044922 L129.19825744628906,58.56524658203125 M139.70091247558594,59.321651458740234 L139.71217346191406,59.26692581176758 L139.72642517089844,59.23582458496094 L139.72232055664062,59.312347412109375 L139.67633056640625,59.618309020996094 L139.56370544433594,60.252532958984375 L139.40243530273438,61.25096130371094 L139.21180725097656,62.60268020629883 L139.02603149414062,64.25153350830078 L138.89361572265625,66.11983489990234 L138.87081909179688,68.13848876953125 L138.98709106445312,70.22178649902344 L139.30184936523438,72.26698303222656 L139.8071746826172,74.12335968017578 L140.4684295654297,75.61111450195312 L141.2518768310547,76.6029281616211 L142.08303833007812,77.02197265625 L142.89137268066406,76.86901092529297 L143.6643524169922,76.22100830078125 L144.3586883544922,75.16364288330078 L144.97915649414062,73.82324981689453 L145.53457641601562,72.36216735839844 L146.01022338867188,70.91539001464844 L146.4535675048828,69.6364974975586 L146.87802124023438,68.61774444580078 L147.2351837158203,67.87837982177734 L147.4998779296875,67.46082305908203 L147.6269073486328,67.376708984375 L147.6190643310547,67.61688232421875 L147.57943725585938,68.17900085449219 L147.58193969726562,68.9819107055664 L147.6632080078125,69.86739349365234 L147.835693359375,70.72740936279297 L148.09478759765625,71.44916534423828 L148.4080047607422,71.96538543701172 L148.76193237304688,72.21705627441406 L149.1129150390625,72.15830993652344 L149.39602661132812,71.72986602783203 L149.54991149902344,70.98051452636719 L149.52029418945312,70.03411102294922 L149.24563598632812,69.07135772705078 L148.710205078125,68.22113037109375 L147.9130859375,67.61332702636719 L146.9096221923828,67.29301452636719 L145.81695556640625,67.32715606689453 L144.76007080078125,67.72833251953125 L143.87554931640625,68.42478942871094 L143.2884063720703,69.11385345458984 L142.99061584472656,69.6063003540039 M147.80035400390625,68.72960662841797 L147.82614135742188,68.73465728759766 L147.9022979736328,68.84553527832031 L148.04202270507812,69.1477279663086 L148.22943115234375,69.6901626586914 L148.46839904785156,70.42285919189453 L148.7349853515625,71.24937438964844 L149.04771423339844,72.05926513671875 L149.42919921875,72.73575592041016 L149.88668823242188,73.19558715820312 L150.3830108642578,73.36837768554688 L150.89674377441406,73.19508361816406 L151.4138641357422,72.65216827392578 L151.9210968017578,71.75741577148438 L152.443603515625,70.59588623046875 L152.98231506347656,69.29683685302734 L153.49856567382812,68.03504943847656 L153.92355346679688,66.98428344726562 L154.25640869140625,66.24641418457031 L154.4912872314453,65.87287902832031 L154.71725463867188,65.84857940673828 L154.97572326660156,66.1479721069336 L155.26446533203125,66.7855453491211 L155.4888916015625,67.77607727050781 L155.63247680664062,69.05648803710938 L155.67172241210938,70.46863555908203 L155.6764373779297,71.75670623779297 L155.67941284179688,72.76274108886719 L155.7005615234375,73.39396667480469 L155.74288940429688,73.64146423339844 L155.87127685546875,73.51168823242188 L156.13369750976562,72.97454833984375 L156.5908660888672,71.977783203125 L157.22329711914062,70.65026092529297 L157.95794677734375,69.14766693115234 L158.7544708251953,67.68797302246094 L159.55674743652344,66.44918823242188 L160.3133544921875,65.53341674804688 L160.99725341796875,64.9441146850586 L161.55848693847656,64.7511215209961 L161.94496154785156,64.9541244506836 L162.2017364501953,65.57023620605469 L162.33543395996094,66.53252410888672 L162.39175415039062,67.72154998779297 L162.43519592285156,68.96659851074219 L162.490234375,70.16773223876953 L162.54214477539062,71.20575714111328 L162.66754150390625,72.00355529785156 L162.88467407226562,72.47688293457031 L163.23651123046875,72.60853576660156 L163.61325073242188,72.52024841308594 L163.90985107421875,72.37458038330078 M167.76708984375,66.3202896118164 L168.39620971679688,65.90068054199219 L169.3810272216797,65.37580871582031 L170.57852172851562,64.89993286132812 L171.70285034179688,64.64494323730469 L172.63441467285156,64.54092407226562 L173.25912475585938,64.56755065917969 L173.43296813964844,64.6714859008789 L172.9884796142578,64.9274673461914 L171.893310546875,65.3926773071289 L170.27981567382812,66.0720443725586 L168.45742797851562,66.91110229492188 L166.87545776367188,67.8480224609375 L165.88375854492188,68.75823974609375 L165.640380859375,69.56603240966797 L166.13885498046875,70.23826599121094 L167.20338439941406,70.73554992675781 L168.6038818359375,71.00736236572266 L170.20114135742188,71.01316833496094 L171.88217163085938,70.70040893554688 L173.59381103515625,70.05690002441406 L175.31222534179688,69.14529418945312 L176.98544311523438,68.07337188720703 L178.48599243164062,66.9788818359375 L179.69454956054688,66.01167297363281 L180.51522827148438,65.2779769897461 L180.9497833251953,64.816162109375 L181.04856872558594,64.6378173828125 L180.92776489257812,64.75704193115234 L180.6483917236328,65.18006896972656 L180.2857666015625,65.90596008300781 L179.95358276367188,66.87600708007812 L179.76718139648438,67.93348693847656 L179.78912353515625,68.90422821044922 L180.04595947265625,69.64173889160156 L180.4633026123047,70.04922485351562 L180.93905639648438,70.09284210205078 L181.42120361328125,69.76514434814453 L181.83485412597656,69.0818099975586 L182.12979125976562,68.11137390136719 L182.30300903320312,67.00572967529297 L182.32606506347656,65.96257781982422 L182.17945861816406,65.1817855834961 L181.89923095703125,64.77392578125 L181.5057373046875,64.79100799560547 L181.09884643554688,65.2093276977539 L180.83663940429688,65.98077392578125 L180.81808471679688,67.01082611083984 L181.11947631835938,68.1920166015625 L181.76290893554688,69.34693908691406 L182.6585693359375,70.32813262939453 L183.71987915039062,71.01469421386719 L184.84762573242188,71.2962646484375 L185.93402099609375,71.08954620361328 L186.92782592773438,70.36911010742188 L187.79635620117188,69.15478515625 L188.48013305664062,67.58594512939453 L188.96636962890625,65.92355346679688 L189.24490356445312,64.41043090820312 L189.34115600585938,63.22559356689453 L189.32627868652344,62.486595153808594 L189.26705932617188,62.22963333129883 L189.20260620117188,62.48712921142578 L189.16893005371094,63.30955505371094 L189.16323852539062,64.70128631591797 L189.1792449951172,66.58570861816406 L189.20962524414062,68.8709716796875 L189.23382568359375,71.40925598144531 L189.227294921875,74.0000991821289 L189.17282104492188,76.36941528320312 L189.10104370117188,78.30526733398438 L189.022705078125,79.6286392211914 L188.958251953125,80.2699966430664 L188.947998046875,80.22810363769531 L188.99856567382812,79.4834976196289 L189.0963134765625,78.02215576171875 L189.3046417236328,75.9986572265625 L189.58114624023438,73.60531616210938 L189.905029296875,71.09750366210938 L190.28704833984375,68.69061279296875 L190.7268524169922,66.51480865478516 L191.2584228515625,64.6710433959961 L191.95689392089844,63.270877838134766 L192.79971313476562,62.35982131958008 L193.73483276367188,61.98472213745117 L194.6595001220703,62.094459533691406 L195.478271484375,62.60894012451172 L196.10845947265625,63.456764221191406 L196.462646484375,64.54278564453125 L196.47781372070312,65.76273345947266 L196.126220703125,67.03650665283203 L195.4290771484375,68.23664855957031 L194.53302001953125,69.2044906616211 L193.61572265625,69.83370208740234 L192.83309936523438,70.05704498291016 L192.31689453125,70.00635528564453 L192.06536865234375,69.8578872680664 M198.07730102539062,63.7564582824707 L198.31591796875,63.7473258972168 L198.63568115234375,63.82421112060547 L198.9161376953125,64.06298065185547 L199.00555419921875,64.51148223876953 L198.8912353515625,65.14850616455078 L198.61351013183594,65.88847351074219 L198.3201904296875,66.6600341796875 L198.1392059326172,67.35198974609375 L198.1571044921875,67.8573226928711 L198.4010772705078,68.09689331054688 L198.72335815429688,68.13077545166016 L198.98297119140625,68.05052185058594 M199.83197021484375,57.335838317871094 L199.82861328125,57.28818893432617 L199.79348754882812,57.190406799316406 L199.74249267578125,57.079715728759766 L199.69155883789062,56.99332809448242 M202.8165283203125,60.700260162353516 L202.9193878173828,61.02749252319336 L203.05435180664062,61.62639617919922 L203.15478515625,62.48908233642578 L203.15640258789062,63.49880599975586 L203.08212280273438,64.53946685791016 L202.995849609375,65.51023864746094 L202.92950439453125,66.32706451416016 L202.91717529296875,66.8994369506836 L202.96005249023438,67.18457794189453 L203.07876586914062,67.14183807373047 L203.33953857421875,66.69810485839844 L203.8200225830078,65.83699798583984 L204.51861572265625,64.61181640625 L205.39016723632812,63.159969329833984 L206.3203125,61.68251419067383 L207.17703247070312,60.39244079589844 L207.8681640625,59.438472747802734 L208.36801147460938,58.949825286865234 L208.66177368164062,58.9696044921875 L208.78321838378906,59.47427749633789 L208.739990234375,60.36772537231445 L208.59030151367188,61.51339340209961 L208.44155883789062,62.7590217590332 L208.42835998535156,63.9805793762207 L208.6529541015625,65.05033874511719 L209.20755004882812,65.8467788696289 L210.0699462890625,66.2758560180664 L211.18959045410156,66.27875518798828 L212.481689453125,65.84379577636719 L213.76963806152344,65.00900268554688 L214.88833618164062,63.89346694946289 L215.70684814453125,62.646385192871094 L216.11814880371094,61.459983825683594 L216.10206604003906,60.491172790527344 L215.72686767578125,59.84015655517578 L215.04617309570312,59.562782287597656 L214.19615173339844,59.70405960083008 L213.31600952148438,60.27735137939453 L212.58102416992188,61.27675247192383 L212.16986083984375,62.59638977050781 L212.2477264404297,64.0496826171875 L212.8847198486328,65.44190216064453 L214.05633544921875,66.59110260009766 L215.71084594726562,67.3408432006836 L217.70310974121094,67.62413787841797 L219.8248291015625,67.44017791748047 L221.56576538085938,67.04109191894531 L222.66453552246094,66.66653442382812 M234.0076904296875,49.90657043457031 L234.03807067871094,49.819129943847656 L234.05661010742188,49.8523063659668 L234.0370330810547,50.22111892700195 L233.9532928466797,51.154380798339844 L233.80059814453125,52.68912887573242 L233.61761474609375,54.73366928100586 L233.40997314453125,57.074424743652344 L233.2250518798828,59.4513053894043 L233.13458251953125,61.63121795654297 L233.180908203125,63.452545166015625 L233.36041259765625,64.7679443359375 L233.56935119628906,65.41024780273438 L233.68118286132812,65.29813385009766 L233.62135314941406,64.4779281616211 L233.46685791015625,63.445377349853516 L233.3114013671875,62.616458892822266 M225.71868896484375,48.42681884765625 L225.9066925048828,48.0641975402832 L226.47906494140625,47.57965087890625 L227.62979125976562,47.121337890625 L229.40028381347656,46.868064880371094 L231.6728973388672,46.83556365966797 L234.21229553222656,46.97277069091797 L236.72122192382812,47.175262451171875 L238.9359130859375,47.359458923339844 L240.68914794921875,47.467105865478516 L241.89605712890625,47.46491241455078 L242.5770263671875,47.40765380859375 L242.86622619628906,47.347904205322266 M240.67987060546875,61.49637222290039 L240.82208251953125,61.350738525390625 L241.05274963378906,61.025177001953125 L241.30593872070312,60.59745788574219 L241.4732208251953,60.2377815246582 L241.53018188476562,60.05210876464844 L241.49468994140625,60.035133361816406 L241.42742919921875,60.131134033203125 M239.09657287597656,63.885372161865234 L239.08975219726562,64.66744232177734 L239.19219970703125,65.6319808959961 L239.48167419433594,66.41744232177734 L239.99908447265625,66.55994415283203 L240.71731567382812,66.01152038574219 L241.51914978027344,64.83468627929688 L242.31881713867188,63.26995086669922 L243.0244903564453,61.547481536865234 L243.5642547607422,59.97514343261719 L243.9060821533203,58.780426025390625 L244.04859924316406,58.057865142822266 L244.00875854492188,57.77498245239258 L243.87872314453125,57.889381408691406 L243.75982666015625,58.33007049560547 L243.7338104248047,59.01182556152344 L243.85769653320312,59.8023681640625 L244.1092529296875,60.52391052246094 L244.46820068359375,60.98652648925781 L244.9412841796875,61.06538391113281 L245.58111572265625,60.673545837402344 L246.42062377929688,59.7616081237793 L247.46563720703125,58.36664962768555 L248.6288604736328,56.61323165893555 L249.77024841308594,54.682552337646484 L250.73178100585938,52.835960388183594 L251.41648864746094,51.27693176269531 L251.80859375,50.12080001831055 L251.92950439453125,49.427921295166016 L251.81163024902344,49.25410461425781 L251.47364807128906,49.66021728515625 L250.9141082763672,50.72615432739258 L250.21359252929688,52.40131378173828 L249.53228759765625,54.52416229248047 L249.05746459960938,56.81832504272461 L248.9215545654297,59.008705139160156 L249.2045440673828,60.89122009277344 L249.83535766601562,62.34669876098633 L250.7692108154297,63.28984832763672 L251.85948181152344,63.71430587768555 L252.9990692138672,63.58464431762695 L254.02725219726562,62.9629020690918 L254.84889221191406,61.9755859375 L255.35812377929688,61.01767349243164 L255.61639404296875,60.340721130371094 M256.4854431152344,65.69636535644531 L256.6007385253906,65.5650634765625 L256.8232421875,65.1841812133789 L257.1561584472656,64.45797729492188 L257.6024475097656,63.39911651611328 L258.17706298828125,62.13741683959961 L258.8428649902344,60.80157470703125 L259.5233154296875,59.496341705322266 L260.16326904296875,58.2838020324707 L260.65478515625,57.17104721069336 L260.9842529296875,56.20396041870117 L261.15771484375,55.45037841796875 L261.17376708984375,54.9791374206543 L260.9823303222656,54.864646911621094 L260.58892822265625,55.168731689453125 L259.9378662109375,55.882816314697266 L259.10797119140625,56.991058349609375 L258.281494140625,58.38124084472656 L257.6668701171875,59.8996467590332 L257.4022216796875,61.39950180053711 L257.58343505859375,62.74091339111328 L258.11785888671875,63.79779052734375 L258.91278076171875,64.53314971923828 L259.874267578125,64.90904235839844 L260.9503173828125,64.87852478027344 L262.0850830078125,64.46825408935547 L263.2237548828125,63.739356994628906 L264.11932373046875,62.98754119873047 L264.6756286621094,62.44196319580078 M266.4352722167969,58.8494987487793 L266.58892822265625,59.17203140258789 L266.8554992675781,59.631595611572266 L267.13873291015625,60.0711784362793 L267.34234619140625,60.33376693725586 M260.7681579589844,52.747188568115234 L260.7398681640625,52.790225982666016 L260.8025817871094,52.85639572143555 L260.92279052734375,52.922515869140625 L261.06695556640625,52.96540832519531 M238.32313537597656,48.80847930908203 L238.2841339111328,48.99879837036133 L238.22091674804688,49.19896697998047 L238.15628051757812,49.34785842895508 L238.11289978027344,49.384334564208984 M271.8858947753906,70.5011215209961 L271.746826171875,70.2975845336914 L271.5186767578125,69.77478790283203 L271.26470947265625,68.83860778808594 L271.04583740234375,67.47508239746094 L270.88623046875,65.79501342773438 L270.8045654296875,63.921566009521484 L270.8074951171875,61.99855422973633 L270.912841796875,60.13003921508789 L271.16778564453125,58.37627029418945 L271.55303955078125,56.73012161254883 L272.0372009277344,55.19520568847656 L272.59161376953125,53.749671936035156 L273.17388916015625,52.433067321777344 L273.7754821777344,51.27474594116211 L274.3917236328125,50.31262969970703 L275.02838134765625,49.56401824951172 L275.66070556640625,49.04454040527344 L276.29693603515625,48.796356201171875 L276.9399719238281,48.91132736206055 L277.564208984375,49.42753982543945 L278.12408447265625,50.36375427246094 L278.57586669921875,51.64982223510742 L278.8148498535156,53.19105529785156 L278.7778015136719,54.91081619262695 L278.4268798828125,56.73676300048828 L277.74334716796875,58.54818344116211 L276.78265380859375,60.243412017822266 L275.66033935546875,61.682132720947266 L274.5032958984375,62.76996612548828 L273.42169189453125,63.45185470581055 L272.4638671875,63.67349624633789 L271.6737060546875,63.32265853881836 L271.08917236328125,62.409305572509766 L270.7435302734375,61.0407829284668 L270.6065673828125,59.72273254394531 L270.60302734375,58.80681610107422 M276.7830810546875,55.206417083740234 L277.06011962890625,55.5301513671875 L277.6422119140625,56.00006103515625 L278.5396728515625,56.54751205444336 L279.70977783203125,57.04888916015625 L281.0765380859375,57.52534866333008 L282.488037109375,57.984519958496094 L283.83880615234375,58.48624801635742 L284.9774169921875,59.00100326538086 L285.74835205078125,59.51007080078125 L286.17376708984375,59.94272232055664 L286.307861328125,60.25537109375 L286.2248840332031,60.42286682128906 L286.0848388671875,60.452144622802734 L285.96710205078125,60.30002212524414 L285.9117126464844,59.906394958496094 L286.01416015625,59.195220947265625 L286.2984619140625,58.18375015258789 L286.7672119140625,56.98219299316406 L287.4163818359375,55.74373245239258 L288.1710205078125,54.64844512939453 L288.9344787597656,53.81843948364258 L289.619384765625,53.31831359863281 L290.1734619140625,53.19076919555664 L290.61419677734375,53.425758361816406 L290.94073486328125,53.97715377807617 L291.204345703125,54.78676986694336 L291.42742919921875,55.73363494873047 L291.5919189453125,56.65496063232422 L291.7098388671875,57.439884185791016 L291.80157470703125,57.986419677734375 L291.81976318359375,58.25318145751953 L291.82940673828125,58.20497131347656 L291.90948486328125,57.83578872680664 L292.10980224609375,57.127132415771484 L292.47125244140625,56.15357971191406 L292.9840087890625,55.0013542175293 L293.58892822265625,53.83863067626953 L294.2522888183594,52.77871322631836 L294.983154296875,51.948402404785156 L295.7466735839844,51.42811584472656 L296.51702880859375,51.271949768066406 L297.2258605957031,51.488555908203125 L297.8251953125,52.10743713378906 L298.24285888671875,53.06854248046875 L298.44744873046875,54.2933349609375 L298.4372863769531,55.6584358215332 L298.26318359375,56.98027801513672 L298.0380554199219,58.06256866455078 L297.8946838378906,58.774330139160156 L297.9242248535156,59.07563400268555 L298.0595397949219,59.09809875488281 L298.2169189453125,59.01069259643555 M305.32464599609375,52.73691940307617 L305.192138671875,52.45021057128906 L304.8845520019531,52.04804229736328 L304.37091064453125,51.657169342041016 L303.67486572265625,51.47666931152344 L302.8849182128906,51.613433837890625 L302.0396423339844,52.05792236328125 L301.2708740234375,52.76401901245117 L300.6351318359375,53.62596130371094 L300.1822509765625,54.495059967041016 L299.96697998046875,55.22562026977539 L300.0517272949219,55.70314407348633 L300.4271240234375,55.86674118041992 L301.09991455078125,55.773494720458984 L301.9560852050781,55.53138732910156 L302.8311767578125,55.29332733154297 L303.6284484863281,55.219635009765625 L304.284423828125,55.46377944946289 L304.78759765625,56.180870056152344 L305.12030029296875,57.472442626953125 L305.23699951171875,59.353973388671875 L305.09454345703125,61.72419738769531 L304.71246337890625,64.36543273925781 L304.11395263671875,67.03627014160156 L303.38287353515625,69.48875427246094 L302.58380126953125,71.52706146240234 L301.7845458984375,72.98969268798828 L301.04052734375,73.80612182617188 L300.41705322265625,73.93680572509766 L299.9669189453125,73.4478759765625 L299.815185546875,72.42684173583984 L300.0968322753906,71.03767395019531 L300.95654296875,69.33177185058594 L302.35064697265625,67.44578552246094 L304.10638427734375,65.51158905029297 L305.65618896484375,63.95447540283203 L306.67169189453125,62.97742462158203 M324.7785339355469,54.76716995239258 L325.00531005859375,54.59840393066406 L325.40863037109375,54.19691467285156 L325.94970703125,53.51229476928711 L326.5099182128906,52.552207946777344 L327.00262451171875,51.3776969909668 L327.431884765625,50.080142974853516 L327.812255859375,48.7703857421875 L328.16571044921875,47.538963317871094 L328.5,46.50233459472656 L328.7657470703125,45.69847869873047 L328.9386901855469,45.19244384765625 L329.00286865234375,45.0 L328.9516296386719,45.113059997558594 L328.78045654296875,45.5318603515625 L328.4715576171875,46.276065826416016 L327.98199462890625,47.28086853027344 L327.3673095703125,48.5187873840332 L326.6827392578125,49.906700134277344 L326.010009765625,51.33031463623047 L325.41021728515625,52.757450103759766 L324.9027099609375,54.23136901855469 L324.43927001953125,55.83643341064453 L323.9861145019531,57.72923278808594 L323.46734619140625,60.040252685546875 L322.8348083496094,62.806236267089844 L322.10882568359375,66.01741790771484 L321.37530517578125,69.62351989746094 L320.7169494628906,73.46027374267578 L320.23419189453125,77.42697143554688 L319.95562744140625,81.44377136230469 L319.867431640625,85.44677734375 L319.91845703125,89.36710357666016 L320.047607421875,93.14392852783203 L320.1673278808594,96.58955383300781 L320.2739562988281,99.64501953125 L320.29229736328125,102.31937408447266 L320.17584228515625,104.62616729736328 L319.8850402832031,106.56941223144531 L319.54541015625,107.96664428710938 L319.2572021484375,108.74805450439453 M281.70465087890625,91.4721908569336 M281.9759521484375,89.68955993652344 M280.5060119628906,94.41985321044922 L280.7412109375,95.46582794189453 L281.0218505859375,96.6285400390625 L281.2596435546875,97.54254150390625 M289.00384521484375,75.5401382446289 L289.15252685546875,75.61006164550781 L289.390869140625,75.75794219970703 L289.6225891113281,75.96023559570312 L289.70538330078125,76.16539764404297 L289.56817626953125,76.32087707519531 L289.2226867675781,76.43746185302734 L288.742919921875,76.57903289794922 L288.2513427734375,76.83415222167969 L287.8009948730469,77.25096893310547 L287.41851806640625,77.81566619873047 L287.1390686035156,78.4098129272461 L287.1324462890625,78.7950668334961 L287.52972412109375,78.76617431640625 L288.4124755859375,78.2497787475586 L289.40692138671875,77.5517349243164 L290.18658447265625,76.97074890136719 M298.0829772949219,83.75723266601562 L298.6583251953125,83.95045471191406 L299.6797790527344,84.29177856445312 L301.1172790527344,84.76275634765625 L302.7284851074219,85.27426147460938 L304.34954833984375,85.7777099609375 L305.61767578125,86.1629867553711 L306.3843078613281,86.37928009033203 M340.4055480957031,70.05550384521484 L340.33331298828125,69.8882827758789 L340.2098083496094,69.90953063964844 L340.0662536621094,70.37991333007812 L339.968994140625,71.5162353515625 L339.94158935546875,73.20527648925781 L339.99658203125,75.20947265625 L340.1388244628906,77.3114013671875 L340.3357238769531,79.33304595947266 L340.55859375,81.2213134765625 L340.77996826171875,83.0147933959961 L340.93017578125,84.76811218261719 L340.97650146484375,86.57546997070312 L340.8441467285156,88.52267456054688 L340.4798889160156,90.59369659423828 L339.8881530761719,92.72777557373047 L339.1568603515625,94.78135681152344 L338.42462158203125,96.6246337890625 L337.8609924316406,98.12767791748047 L337.5146179199219,99.2145767211914 L337.3646240234375,99.8599853515625 L337.33258056640625,100.15082550048828 L337.3429260253906,100.21443176269531 M332.7822265625,91.93976593017578 L332.59967041015625,91.27531433105469 L332.4996337890625,90.271240234375 L332.67156982421875,89.10672760009766 L333.28466796875,88.08419799804688 L334.29736328125,87.27100372314453 L335.55047607421875,86.66907501220703 L336.8869934082031,86.23004150390625 L338.2415466308594,85.93070983886719 L339.6083984375,85.72946166992188 L340.99151611328125,85.59596252441406 L342.31097412109375,85.5025863647461 L343.4231872558594,85.3974609375 L344.17169189453125,85.3002700805664 L344.54339599609375,85.22163391113281 M330.87615966796875,79.687744140625 " fill="none" stroke="black" stroke-linecap="round" stroke-width="2" /></svg>